# xmcd
#
# Track frame offsets:
#	150
#	17978
#	30805
#	43185
#	65871
#	80176
#	97361
#	113661
#	132004
#	161398
#	176011
#	190188
#	206035
#	219825
#	231494
#	256090
#	270514
#	285306
#
# Disc length: 4016 seconds
#
# Revision: 0
# Processed by: cddbd v1.5.2PL0 Copyright (c) Steve Scherf et al.
# Submitted via: EasyCDDAExtractor 15.2.5.1
#
DISCID=010fae12
DTITLE=Various Artist - MAN CHEST HAIR
DYEAR=1900
DGENRE=
TTITLE0=OSCAR - GOOD LOVIN' WOMAN
TTITLE1=URBANE GORILLA - TEN DAYS GONE
TTITLE2=STACK WADDY - HUNT THE STAG
TTITLE3=GREASY BEAR - WINDY DAY
TTITLE4=J.C. HEAVY - IS THIS REALLY ME?
TTITLE5=SOCRATES - JOHNNY
TTITLE6=PLASMA - SEVEN STARS
TTITLE7=SLIPPED DISC - COME ON IN
TTITLE8=SAVORY DUCK - DRAGONFLIGHT
TTITLE9=THE WAY WE LIVE - KING DICK II
TTITLE10=SPIDER JIVE - CROCADILLA
TTITLE11=SWEET CHARIOT - WILDSIDE
TTITLE12=SAMSUN - BRINGING IT ALL BACK HOME
TTITLE13=SO ON and SO FORTH - SWEET WINE
TTITLE14=GRISBY DYKE - NEBULA
TTITLE15=YOUNG and RENSHAW - CAN'T GET ENOUGH OF YOUR LOVE
TTITLE16=PLASMA - HAZEL TIME
TTITLE17=CHRIS STATHAM - GETAWAY
EXTD=
EXTT0=
EXTT1=
EXTT2=
EXTT3=
EXTT4=
EXTT5=
EXTT6=
EXTT7=
EXTT8=
EXTT9=
EXTT10=
EXTT11=
EXTT12=
EXTT13=
EXTT14=
EXTT15=
EXTT16=
EXTT17=
PLAYORDER=
